# xmcd
#
# Track frame offsets: 
#        150
#        21619
#        58776
#        81594
#        99871
#        120196
#        137056
#        170456
#        204044
#        235419
#        250584
#
# Disc length: 3597 seconds
#
# Revision: 3
# Processed by: cddbd v1.5.2PL0 Copyright (c) Steve Scherf et al.
# Submitted via: ExactAudioCopy v1.3
#
DISCID=8b0e0b0b
DTITLE=Jimmy Dawkins - All For Bussiness
DYEAR=1990
DGENRE=Chicago Blues
TTITLE0=All For bussiness
TTITLE1=Cotton Country
TTITLE2=Moon Man
TTITLE3=Down So long
TTITLE4=Welfare Blues
TTITLE5=Having Such A Hard Time
TTITLE6=Sweet Home Chicago
TTITLE7=Born In Poverty
TTITLE8=Jammin' With Otis
TTITLE9=Hippies Playground
TTITLE10=Moon Man
EXTD=1990\nDelmark\n\nsubmitted by Stamppot
EXTT0=
EXTT1=
EXTT2=
EXTT3=
EXTT4=
EXTT5=
EXTT6=
EXTT7=
EXTT8=
EXTT9=
EXTT10=
PLAYORDER=
